<?xml version="1.0"?>
<svg id="Layer_2" data-name="Layer 2" xmlns="http://www.w3.org/2000/svg" viewBox="0 0 143.64 20">
  <g id="Layer_1-2" data-name="Layer 1">
    <g>
      <path fill="#16130e" d="M0,17.08l2.95-3.61c2.63,1.52,5.4,2.31,7.66,2.31,2,0,2.9-.58,2.9-1.44v-.07c0-1.19-2.36-1.59-5.03-2.24-3.4-.79-7.25-2.06-7.25-5.81v-.07C1.22,2.2,5.21,0,10.11,0c3.08,0,6.44.83,9.07,2.24l-2.63,3.79c-2.4-1.12-4.81-1.8-6.57-1.8-1.68,0-2.54.58-2.54,1.34v.07c0,1.08,2.31,1.59,4.94,2.31,3.4.9,7.34,2.2,7.34,5.74v.07c0,4.3-4.03,6.25-9.29,6.25-3.4,0-7.21-.9-10.43-2.92Z"></path>
      <polygon fill="#16130e" points="52.14 15.06 62.27 4.93 62.27 .28 45.01 .28 45.01 4.93 55.69 4.93 44.99 15.75 45.01 19.71 45.03 19.71 45.03 19.72 62.18 19.72 62.14 15.07 52.14 15.06"></polygon>
      <path fill="#16130e" d="M32.37,15.15c-1.93,0-3.59-1.07-4.48-2.64h7.98s6,0,6,0c.21-.8.34-1.64.34-2.51C42.21,4.57,37.8.17,32.37.17s-9.84,4.4-9.84,9.83,4.41,9.83,9.84,9.83c2.94,0,5.58-1.3,7.38-3.34l-4.02-2.62c-.9.79-2.07,1.28-3.36,1.28ZM32.37,4.85c2.14,0,3.98,1.31,4.76,3.16h-9.52c.78-1.86,2.62-3.16,4.76-3.16Z"></path>
      <path fill="#ffd200" d="M136.68.59s0,0,0,0c-1.02-.32-2.1-.51-3.23-.49-2.68.06-5.08,1.18-6.84,2.93l-9.47,9.61s-1.83,1.82-3.56,2.41c-.39.1-.79.16-1.21.16-2.85,0-5.16-2.31-5.16-5.15s2.32-5.16,5.16-5.16c1.49,0,2.83.64,3.77,1.66l3.3-3.34c-1.79-1.84-4.29-2.99-7.06-2.99-5.44,0-9.84,4.4-9.84,9.83s4.41,9.83,9.84,9.83c2.19,0,4.21-.72,5.85-1.94.58-.39,1.11-.83,1.58-1.29l2.38-2.46,7.1-7.15c.25-.24.74-.67,1.33-1.1h0c.88-.69,1.97-1.12,3.18-1.12,2.85,0,5.16,2.31,5.16,5.16s-2.32,5.15-5.16,5.15c-1.48,0-2.81-.64-3.76-1.64l-3.29,3.34c1.79,1.83,4.28,2.98,7.05,2.98,5.44,0,9.84-4.4,9.84-9.83,0-4.43-2.93-8.17-6.95-9.4Z"></path>
      <path fill="#16130e" d="M94.51,19.87v-10.62c0-2.36-2-4.29-4.46-4.29h-.39c-2.46,0-4.46,1.92-4.46,4.29v10.62h-5.34l-.11-.28v-10.34c0-2.36-2-4.29-4.46-4.29h-.39c-2.46,0-4.46,1.92-4.46,4.29v10.62h-5.34v-10.29c0-5.21,4.4-9.46,9.8-9.46h.39c2.72,0,5.32,1.11,7.18,3.05,1.86-1.94,4.46-3.05,7.19-3.05h.39c5.41,0,9.8,4.24,9.8,9.46v10.29h-5.34Z"></path>
    </g>
  </g>
</svg>