<svg width="64" height="51" viewBox="0 0 64 51" fill="none" xmlns="http://www.w3.org/2000/svg">
<path d="M33.333 33.1158C31.9213 33.1158 30.694 33.6758 29.6956 34.7734C28.6909 35.8806 28.1821 37.2534 28.1821 38.863C28.1821 40.4726 28.694 41.8486 29.6956 42.9526C30.6971 44.0534 31.9213 44.6101 33.333 44.6101C34.7002 44.6101 35.7748 44.1718 36.5252 43.3014L36.8622 42.911V44.2934H39.8351V33.4262H36.8622V34.8086L36.5252 34.4182C35.7717 33.5542 34.7002 33.1158 33.333 33.1158ZM36.061 41.0102C35.5332 41.5414 34.8401 41.8102 34.0007 41.8102C33.1613 41.8102 32.4681 41.5414 31.9403 41.0102C31.4125 40.479 31.1455 39.759 31.1455 38.8694C31.1455 37.9798 31.4125 37.2598 31.9403 36.7286C32.4681 36.1974 33.1613 35.9286 34.0007 35.9286C34.8401 35.9286 35.5332 36.1974 36.061 36.7286C36.5888 37.2598 36.8559 37.9798 36.8559 38.8694C36.8591 39.7558 36.592 40.4726 36.061 41.0102Z" fill="#212121"></path>
<path d="M45.4088 40.8822C44.8969 40.3606 44.6362 39.6822 44.6362 38.8662C44.6362 38.0502 44.8969 37.375 45.4088 36.8502C45.9207 36.3254 46.5789 36.0598 47.3579 36.0598C48.3976 36.0598 49.1543 36.4598 49.6058 37.247L52.1971 35.7334C51.7329 34.9718 51.0843 34.3478 50.2735 33.8774C49.4023 33.3718 48.4389 33.1158 47.4024 33.1158C45.7649 33.1158 44.385 33.6726 43.3008 34.7702C42.2166 35.8678 41.6665 37.247 41.6665 38.8662C41.6665 40.4854 42.2166 41.8646 43.3008 42.9622C44.385 44.0598 45.7649 44.6165 47.4024 44.6165C48.4516 44.6165 49.4214 44.3606 50.283 43.855C51.0875 43.3846 51.7297 42.7478 52.2003 41.9766L49.6122 40.4854C49.1734 41.2726 48.4135 41.6726 47.361 41.6726C46.5789 41.6726 45.9239 41.407 45.4088 40.8822Z" fill="#212121"></path>
<path d="M24.589 35.2951L24.2107 36.5975V33.4295H21.2378V44.2998H24.2107V39.4071C24.2107 38.3191 24.6017 37.5383 25.368 37.0903C26.0484 36.6935 26.7861 36.5367 27.5651 36.6199V33.2087C26.9164 33.2375 26.3123 33.4199 25.7654 33.7495C25.1804 34.1079 24.783 34.6263 24.589 35.2951Z" fill="#212121"></path>
<path d="M16.8723 30.3448L13.8995 31.2407V33.4327H12.1094V36.2903H13.8995V40.4695C13.8995 42.0375 14.2874 43.1318 15.0536 43.727C15.8072 44.3126 17.1903 44.5142 19.1743 44.3254V41.6375C18.4335 41.6663 17.8866 41.6247 17.5368 41.5063C17.1012 41.3623 16.8691 41.0007 16.8691 40.4663V36.2871H19.1711V33.4295H16.8691V30.3416H16.8723V30.3448Z" fill="#212121"></path>
<path d="M5.84911 40.8887L8.45314 38.2551C10.027 36.6615 10.8314 35.0391 10.8346 33.4391C10.8346 31.9767 10.3354 30.7927 9.34341 29.9255C8.34822 29.0551 7.12728 28.6104 5.72192 28.6104C4.63135 28.6104 3.60754 28.8984 2.68865 29.4615C1.82064 29.9959 1.14658 30.7767 0.685547 31.7847L3.37543 33.3687C3.90323 32.2871 4.70765 31.7367 5.76644 31.7367C6.34193 31.7367 6.79979 31.9095 7.13364 32.2583C7.46749 32.6007 7.636 33.0519 7.636 33.5991C7.636 34.4151 7.08276 35.3975 5.99536 36.5271L0.790471 41.9638V44.303H11.0572V41.3142H5.42623L5.84911 40.8887Z" fill="#212121"></path>
<path d="M59.6721 38.8694L59.758 38.751L63.6052 33.4327H60.1681L56.5212 38.7926V28.9271H53.5483V44.303H56.5212V38.9334L60.3907 44.303H63.7133L59.6721 38.8694Z" fill="#212121"></path>
<path d="M27.8386 0.556152L20.249 25.3879H27.5556L35.1515 0.556152H27.8386Z" fill="#212121"></path>
<path d="M63.1028 15.932L60.4733 7.32727L58.7437 12.972L59.6466 15.932H63.1028Z" fill="#212121"></path>
<path d="M53.5805 22.2328L58.283 6.85693L52.9 6.86333L48.1943 22.2392L53.5805 22.2328Z" fill="#212121"></path>
<path d="M37.196 25.3879L44.7887 0.556152H37.479L29.8862 25.3879H37.196Z" fill="#212121"></path>
<path d="M46.9763 1.02014L43.2881 13.0744L46.0129 21.7816L49.6662 9.82007L46.9763 1.02014Z" fill="#212121"></path>
<path d="M6.29102 12.9721L5.38803 10.0121H1.93506L4.56771 18.6264L6.29102 12.9721Z" fill="#212121"></path>
<path d="M11.4545 3.70813L6.76465 19.0872H12.1349L16.8374 3.70813H11.4545Z" fill="#212121"></path>
<path d="M18.0585 24.9271L21.715 12.972L19.0251 4.17212L15.3687 16.1272L18.0585 24.9271Z" fill="#212121"></path>
<path d="M1.8908 49.7878H1.14997V50.751H0.975098V48.399H1.89716C2.27871 48.399 2.58712 48.7094 2.58712 49.0934C2.58712 49.4134 2.36773 49.6822 2.07204 49.7622L2.65389 50.751H2.4504L1.8908 49.7878ZM1.15315 49.6214H1.89716C2.18332 49.6214 2.41225 49.3878 2.41225 49.0966C2.41225 48.8054 2.18332 48.5686 1.89716 48.5686H1.15315V49.6214Z" fill="#212121" stroke="#212121" stroke-miterlimit="10"></path>
<path d="M12.3005 50.5878V50.7542H10.9556V48.4022H12.2846V48.5686H11.1336V49.4838H12.2019V49.6502H11.1336V50.5846H12.3037V50.5878H12.3005Z" fill="#212121" stroke="#212121" stroke-miterlimit="10"></path>
<path d="M20.5166 49.5797C20.5166 48.9077 21.019 48.3669 21.7312 48.3669C22.1604 48.3669 22.5388 48.5909 22.7327 48.9301L22.5738 49.0229C22.418 48.7317 22.0936 48.5365 21.728 48.5365C21.1144 48.5365 20.6883 49.0005 20.6883 49.5797C20.6883 50.1589 21.1112 50.6229 21.728 50.6229C22.0968 50.6229 22.4243 50.4245 22.5801 50.1301L22.7391 50.2229C22.5483 50.5717 22.17 50.7957 21.7312 50.7957C21.0221 50.7925 20.5166 50.2485 20.5166 49.5797Z" fill="#212121" stroke="#212121" stroke-miterlimit="10"></path>
<path d="M30.9551 49.5797C30.9551 48.9077 31.4861 48.3669 32.1601 48.3669C32.8342 48.3669 33.3652 48.9077 33.3652 49.5797C33.3652 50.2517 32.8342 50.7925 32.1601 50.7925C31.4892 50.7925 30.9551 50.2485 30.9551 49.5797ZM33.1903 49.5797C33.1903 49.0005 32.7388 48.5365 32.1633 48.5365C31.5878 48.5365 31.1363 49.0005 31.1363 49.5797C31.1363 50.1589 31.5878 50.6229 32.1633 50.6229C32.7388 50.6229 33.1903 50.1589 33.1903 49.5797Z" fill="#212121" stroke="#212121" stroke-miterlimit="10"></path>
<path d="M42.6618 49.7877H41.921V50.7509H41.7461V48.3989H42.6682C43.0497 48.3989 43.3581 48.7093 43.3581 49.0933C43.3581 49.4133 43.1387 49.6821 42.843 49.7621L43.4249 50.7509H43.2214L42.6618 49.7877ZM41.9241 49.6213H42.6682C42.9543 49.6213 43.1832 49.3877 43.1832 49.0965C43.1832 48.8053 42.9543 48.5685 42.6682 48.5685H41.9241V49.6213Z" fill="#212121" stroke="#212121" stroke-miterlimit="10"></path>
<path d="M53.7045 49.5798C53.7045 50.2294 53.2466 50.7574 52.6012 50.7574H51.7236V48.4054H52.6012C53.2466 48.4022 53.7045 48.9302 53.7045 49.5798ZM53.5296 49.5798C53.5296 49.023 53.1512 48.5718 52.6012 48.5718H51.9017V50.5878H52.6012C53.1544 50.5878 53.5296 50.1366 53.5296 49.5798Z" fill="#212121" stroke="#212121" stroke-miterlimit="10"></path>
<path d="M61.8599 50.2358L62.0157 50.143C62.0952 50.4278 62.3336 50.6166 62.7152 50.6166C63.1062 50.6166 63.3034 50.415 63.3034 50.1462C63.3034 49.8614 63.0554 49.7558 62.6961 49.6438C62.305 49.5158 61.9553 49.407 61.9553 48.9942C61.9553 48.607 62.2637 48.3638 62.6643 48.3638C63.049 48.3638 63.3002 48.5878 63.4147 48.8566L63.262 48.943C63.173 48.7318 62.995 48.5366 62.6611 48.5366C62.3368 48.5366 62.1333 48.7286 62.1333 48.991C62.1333 49.2758 62.3686 49.359 62.7024 49.4742C63.119 49.6118 63.4782 49.743 63.4782 50.1526C63.4782 50.543 63.1762 50.7989 62.712 50.7989C62.2796 50.7925 61.9648 50.5686 61.8599 50.2358Z" fill="#212121" stroke="#212121" stroke-miterlimit="10"></path>
</svg>