<svg width="119" height="20" viewBox="0 0 119 20" xmlns="http://www.w3.org/2000/svg">
<path d="M5.47663 15.9675H10.1271C13.3463 15.9675 14.5527 14.7273 14.5527 11.9167V9.15879C14.5527 6.32008 13.3785 4.99558 10.1271 4.99558H5.47663V15.9675ZM10.1235 1.24695C15.9196 1.24695 19.2245 3.53408 19.2245 9.15879V11.9167C19.2245 17.429 15.9767 19.7161 10.1235 19.7161H0.883301V1.24695H10.1235Z"></path>
<path d="M24.8526 8.99367V11.9448C24.8526 14.6184 26.6442 16.0518 29.7529 16.0518H30.3953C33.4468 16.0518 35.267 14.6184 35.267 11.9448V8.99367C35.267 6.34818 33.4468 4.91478 30.3953 4.91478H29.7529C26.6442 4.91478 24.8526 6.34818 24.8526 8.99367ZM30.4809 0.9729C35.9415 0.9729 39.9175 3.73081 39.9175 8.88476V12.138C39.9175 17.2639 35.9415 19.9937 30.4809 19.9937H29.7529C24.2351 19.9937 20.2021 17.2639 20.2021 12.138V8.88476C20.2021 3.73081 24.2351 0.9729 29.7529 0.9729H30.4809Z"></path>
<path d="M46.0491 9.54525H51.4241C53.1336 9.54525 54.1687 8.91287 54.1687 7.45135V6.89977C54.1687 5.43825 53.1336 4.80587 51.4241 4.80587H46.0491V9.54525ZM52.2378 1.24695C56.3279 1.24695 58.762 3.26004 58.762 6.70654V7.61647C58.762 9.93171 57.6128 11.6673 55.5963 12.5245L59.5151 19.7196H54.5042L50.8923 13.1323H46.0491V19.7196H41.4272V1.24695H52.2378Z"></path>
<path d="M66.2145 12.1099H72.4888L69.8549 5.19233H68.8199L66.2145 12.1099ZM72.9064 1.24695L79.9338 19.7161H75.369L73.8558 15.7462H64.8369L63.3236 19.7161H59.0122L65.9896 1.24695H72.9064Z"></path>
<path d="M88.8956 0.9729C94.4668 0.9729 97.968 3.50947 97.968 8.16805V8.61072H93.3176V8.16805C93.3176 6.12685 91.8329 4.91478 88.8634 4.91478H88.2746C85.3622 4.91478 83.7383 6.21117 83.7383 8.80044V12.1099C83.7383 14.8397 85.3908 16.0518 88.2746 16.0518H88.8634C91.8329 16.0518 93.3997 14.8397 93.3997 12.7177V12.4402H98.0751V12.7177C98.0751 17.4852 94.4632 19.9937 88.892 19.9937H88.2746C82.8425 19.9937 79.0879 17.4571 79.0879 12.1099V8.80044C79.0879 3.59028 82.8389 0.9729 88.2746 0.9729H88.892H88.8956Z"></path>
<path d="M103.596 8.99367V11.9448C103.596 14.6184 105.388 16.0518 108.497 16.0518H109.139C112.19 16.0518 114.011 14.6184 114.011 11.9448V8.99367C114.011 6.34818 112.19 4.91478 109.139 4.91478H108.497C105.388 4.91478 103.596 6.34818 103.596 8.99367ZM109.225 0.9729C114.685 0.9729 118.661 3.73081 118.661 8.88476V12.138C118.661 17.2639 114.685 19.9937 109.225 19.9937H108.497C102.979 19.9937 98.9458 17.2639 98.9458 12.138V8.88476C98.9458 3.73081 102.979 0.9729 108.497 0.9729H109.225Z"></path>
</svg>