<svg width="109" height="53" viewBox="0 0 109 53" fill="none" xmlns="http://www.w3.org/2000/svg">
<g clip-path="url(#clip0_545_2105)">
<mask id="mask0_545_2105" style="mask-type:luminance" maskUnits="userSpaceOnUse" x="0" y="0" width="109" height="53">
<path d="M108.999 0H0V53H108.999V0Z" fill="white"></path>
</mask>
<g mask="url(#mask0_545_2105)">
<path d="M4.72577 50.8119C5.07983 50.8119 5.42144 50.7076 5.7506 50.4963C6.077 50.285 6.32733 49.9972 6.50021 49.6288V47.8452C6.33839 47.4142 6.077 47.0597 5.71741 46.7831C5.35782 46.5078 4.98302 46.3688 4.59715 46.3688C4.31777 46.3688 4.06191 46.4327 3.83094 46.5565C3.59998 46.6816 3.39805 46.8456 3.22656 47.05C3.05506 47.2557 2.92367 47.4935 2.83239 47.7632C2.73973 48.0329 2.69547 48.3206 2.69547 48.6223C2.69547 48.924 2.74664 49.2284 2.84899 49.4981C2.94995 49.7678 3.09102 50 3.26805 50.1946C3.44508 50.3892 3.65945 50.5408 3.91254 50.6478C4.16564 50.7563 4.43671 50.8091 4.72715 50.8091M4.03148 53C3.45061 53 2.91676 52.8902 2.42716 52.6678C1.93756 52.4467 1.51574 52.1353 1.1603 51.7364C0.80624 51.3374 0.528249 50.8689 0.330475 50.335C0.131317 49.7998 0.0317383 49.2131 0.0317383 48.575C0.0317383 47.9369 0.123019 47.3822 0.30558 46.8415C0.488141 46.3007 0.746769 45.835 1.0787 45.4401C1.41201 45.0467 1.80756 44.7339 2.26396 44.5073C2.72036 44.2807 3.22379 44.1667 3.77147 44.1667C4.36203 44.1667 4.89727 44.3085 5.3758 44.5893C5.85433 44.8702 6.22222 45.2483 6.47946 45.7237V41.0082H9.06021V49.9221C9.06021 50.1821 9.10032 50.3628 9.18192 50.4657C9.26213 50.5686 9.40459 50.6298 9.60789 50.652V52.8402C9.37139 52.8944 9.16671 52.9291 8.99659 52.9444C8.82371 52.9611 8.66328 52.9695 8.51253 52.9695C8.06027 52.9695 7.69515 52.8749 7.41578 52.6859C7.13641 52.4968 6.97459 52.2229 6.93172 51.867L6.88331 51.4291C6.58319 51.9574 6.17658 52.3522 5.66624 52.6122C5.15451 52.8708 4.60959 53 4.02872 53" fill="#212121"></path>
<path d="M14.4169 48.5918C14.4169 49.2618 14.5939 49.7998 14.9494 50.2044C15.3034 50.6089 15.7543 50.8119 16.3034 50.8119C16.5717 50.8119 16.8192 50.7591 17.0461 50.6506C17.2715 50.5436 17.4665 50.3921 17.6339 50.1974C17.7998 50.0014 17.9312 49.7679 18.028 49.4912C18.1248 49.216 18.1732 48.9157 18.1732 48.5918C18.1732 47.9217 17.9962 47.3851 17.6408 46.9791C17.2853 46.5746 16.8386 46.3702 16.302 46.3702C16.0337 46.3702 15.7834 46.4244 15.5524 46.5329C15.3214 46.6413 15.1236 46.7928 14.9563 46.9875C14.7903 47.1807 14.6589 47.4156 14.5621 47.6923C14.4653 47.9676 14.4169 48.2678 14.4169 48.5918ZM16.3034 53.0001C15.5828 53.0001 14.9411 52.8819 14.3768 52.6442C13.8125 52.4065 13.3381 52.0853 12.9509 51.6794C12.5636 51.2734 12.2704 50.8036 12.0713 50.2697C11.8735 49.7345 11.7739 49.1756 11.7739 48.5918C11.7739 48.0079 11.8735 47.4504 12.0713 46.9152C12.2704 46.3799 12.5636 45.9101 12.9509 45.5041C13.3381 45.0996 13.8139 44.7757 14.3768 44.5324C14.9411 44.2891 15.5828 44.1667 16.3034 44.1667C17.0239 44.1667 17.6629 44.2891 18.2217 44.5324C18.7804 44.7757 19.2548 45.0996 19.6406 45.5041C20.0279 45.9101 20.3239 46.3799 20.5272 46.9152C20.7319 47.4504 20.8328 48.0079 20.8328 48.5918C20.8328 49.1756 20.7332 49.7359 20.5355 50.2697C20.3363 50.805 20.0431 51.2734 19.6572 51.6794C19.27 52.0839 18.7942 52.4051 18.2299 52.6442C17.6657 52.8819 17.0239 53.0001 16.3034 53.0001Z" fill="#212121"></path>
<path d="M36.7734 52.8387H34.1926V48.0565C34.1926 47.4948 34.0903 47.0875 33.887 46.8331C33.6837 46.5787 33.4195 46.4522 33.0973 46.4522C32.9258 46.4522 32.7501 46.4897 32.5745 46.5662C32.3975 46.6412 32.2329 46.7469 32.0821 46.8817C31.9314 47.018 31.7945 47.1765 31.6714 47.36C31.5469 47.5435 31.4473 47.7437 31.3726 47.9591V52.8374H28.7919V48.0551C28.7919 47.4934 28.6909 47.0861 28.4862 46.8317C28.2815 46.5773 28.0188 46.4508 27.6951 46.4508C27.3508 46.4508 27.0161 46.5884 26.6883 46.8637C26.3605 47.1389 26.1212 47.5045 25.9705 47.9577V52.836H23.3911V44.3265H25.7132V45.7529C26.0244 45.233 26.4462 44.8395 26.9787 44.5698C27.5112 44.3001 28.1322 44.1653 28.8417 44.1653C29.1957 44.1653 29.5055 44.2084 29.7697 44.2946C30.0325 44.3822 30.2607 44.4989 30.4543 44.6519C30.6479 44.8034 30.8042 44.9786 30.9218 45.1773C31.0407 45.3789 31.1251 45.5916 31.179 45.8182C31.5026 45.29 31.9258 44.8812 32.4528 44.5935C32.9783 44.3085 33.5813 44.1653 34.259 44.1653C34.797 44.1653 35.2285 44.2654 35.5563 44.4656C35.8841 44.6644 36.14 44.9243 36.3225 45.2427C36.5051 45.5624 36.6254 45.91 36.6849 46.2881C36.743 46.6663 36.7734 47.0333 36.7734 47.3905V52.836V52.8387Z" fill="#212121"></path>
<path d="M48.2389 53.0001C47.5183 53.0001 46.8088 52.8833 46.1104 52.6511C45.4119 52.419 44.82 52.0812 44.3359 51.6391L45.2543 50.0501C45.7701 50.4074 46.2722 50.6826 46.7618 50.8759C47.25 51.0705 47.7216 51.1678 48.1725 51.1678C48.5058 51.1678 48.763 51.108 48.9456 50.9898C49.1282 50.8703 49.2194 50.6979 49.2194 50.4713C49.2194 50.2447 49.1033 50.0626 48.8723 49.9277C48.6413 49.7943 48.2347 49.6497 47.6552 49.4996C47.0854 49.3369 46.6041 49.1798 46.2113 49.0297C45.8199 48.8781 45.4991 48.7099 45.2515 48.5278C45.0039 48.3443 44.8269 48.133 44.719 47.8953C44.6112 47.6575 44.5572 47.3767 44.5572 47.0514C44.5572 46.6205 44.6444 46.2256 44.8159 45.8684C44.9873 45.5125 45.2252 45.2094 45.5254 44.9606C45.8255 44.7117 46.1837 44.5171 46.5972 44.3781C47.0121 44.2376 47.4602 44.1667 47.9443 44.1667C48.5791 44.1667 49.1724 44.2543 49.7256 44.4267C50.2802 44.5991 50.8141 44.9133 51.33 45.3679L50.33 46.9235C49.846 46.5885 49.4158 46.3452 49.0396 46.1937C48.6635 46.0421 48.2983 45.9671 47.9429 45.9671C47.6635 45.9671 47.427 46.0241 47.2334 46.1367C47.0398 46.2507 46.943 46.43 46.943 46.6788C46.943 46.9277 47.0481 47.0959 47.2583 47.2141C47.4685 47.3322 47.8572 47.4629 48.427 47.6033C49.0286 47.7646 49.5362 47.9272 49.9511 48.0899C50.3646 48.2525 50.7007 48.4333 50.9579 48.6335C51.2166 48.8323 51.4046 49.063 51.5222 49.3216C51.6411 49.5816 51.6992 49.8888 51.6992 50.2447C51.6992 51.0872 51.3867 51.7572 50.7629 52.2549C50.1405 52.7512 49.2955 53.0001 48.232 53.0001" fill="#212121"></path>
<path d="M60.0598 47.7812C60.0059 47.2404 59.8123 46.815 59.4789 46.5008C59.1456 46.1866 58.7321 46.0309 58.2384 46.0309C57.7446 46.0309 57.3159 46.1908 56.9881 46.5092C56.6603 46.8289 56.4695 47.2529 56.4155 47.7812H60.0598ZM58.2702 53C57.5607 53 56.9231 52.8832 56.3588 52.6511C55.7945 52.4189 55.3174 52.1033 54.9246 51.7029C54.5318 51.304 54.2345 50.841 54.0298 50.3183C53.8251 49.7942 53.7241 49.2451 53.7241 48.6723C53.7241 48.0565 53.8251 47.4753 54.0298 46.9304C54.2331 46.384 54.529 45.9072 54.9163 45.4957C55.3035 45.0842 55.7793 44.7603 56.3422 44.5226C56.9065 44.2848 57.5482 44.1653 58.2688 44.1653C58.9893 44.1653 59.6283 44.2848 60.1871 44.5226C60.7458 44.7603 61.2202 45.0828 61.6061 45.4874C61.9933 45.8933 62.2865 46.3604 62.4843 46.8901C62.6834 47.4197 62.783 47.9758 62.783 48.5597C62.783 48.7112 62.7775 48.86 62.7664 49.006C62.7554 49.1519 62.7388 49.2784 62.718 49.3869H56.4612C56.504 49.9596 56.7115 50.3948 57.0821 50.6923C57.4528 50.9884 57.8746 51.1385 58.3476 51.1385C58.7238 51.1385 59.0862 51.0468 59.4361 50.8633C59.786 50.6798 60.0197 50.4323 60.1386 50.1181L62.3321 50.734C61.9988 51.4041 61.483 51.949 60.7831 52.3702C60.0847 52.7915 59.2452 53.0028 58.2674 53.0028" fill="#212121"></path>
<path d="M73.4211 52.8387H70.8403V48.0565C70.8403 47.4948 70.7366 47.0875 70.5264 46.8331C70.3162 46.5787 70.0395 46.4522 69.6952 46.4522C69.5126 46.4522 69.33 46.4897 69.1461 46.5662C68.9635 46.6412 68.7865 46.7469 68.6136 46.8817C68.4421 47.018 68.2886 47.1765 68.1545 47.36C68.0203 47.5435 67.9152 47.7437 67.8405 47.9591V52.8374H65.2598V44.3279H67.5819V45.7543C67.8945 45.2455 68.3343 44.8548 68.9041 44.5782C69.4739 44.3029 70.1294 44.1653 70.8721 44.1653C71.4198 44.1653 71.861 44.2654 72.1943 44.4656C72.5276 44.6644 72.7849 44.9243 72.9688 45.2427C73.1514 45.5624 73.2717 45.91 73.3312 46.2881C73.3893 46.6663 73.4197 47.0333 73.4197 47.3905V52.836L73.4211 52.8387Z" fill="#212121"></path>
</g>
<path d="M76.4282 52.8388H79.009V44.3294H76.4282V52.8388ZM76.4282 43.3576H79.009V41.0082H76.4282V43.3576Z" fill="#212121"></path>
<mask id="mask1_545_2105" style="mask-type:luminance" maskUnits="userSpaceOnUse" x="0" y="0" width="109" height="53">
<path d="M108.999 0H0V53H108.999V0Z" fill="white"></path>
</mask>
<g mask="url(#mask1_545_2105)">
<path d="M84.2231 48.5918C84.2231 49.2618 84.4001 49.7998 84.7555 50.2044C85.1096 50.6089 85.5618 50.8119 86.1095 50.8119C86.3778 50.8119 86.6254 50.7591 86.8522 50.6506C87.0777 50.5436 87.2727 50.3921 87.44 50.1974C87.606 50.0014 87.7374 49.7679 87.8342 49.4912C87.931 49.216 87.9794 48.9157 87.9794 48.5918C87.9794 47.9217 87.8024 47.3851 87.4469 46.9791C87.0915 46.5746 86.6448 46.3702 86.1081 46.3702C85.8398 46.3702 85.5895 46.4244 85.3585 46.5329C85.1276 46.6413 84.9298 46.7928 84.7625 46.9875C84.5965 47.1807 84.4651 47.4156 84.3683 47.6923C84.2715 47.9676 84.2231 48.2678 84.2231 48.5918ZM86.1095 53.0001C85.389 53.0001 84.7472 52.8819 84.183 52.6442C83.6187 52.4065 83.1443 52.0853 82.757 51.6794C82.3698 51.2734 82.0766 50.8036 81.8774 50.2697C81.6797 49.7345 81.5801 49.1756 81.5801 48.5918C81.5801 48.0079 81.6797 47.4504 81.8774 46.9152C82.0766 46.3799 82.3698 45.9101 82.757 45.5041C83.1443 45.0996 83.6201 44.7757 84.183 44.5324C84.7472 44.2891 85.389 44.1667 86.1095 44.1667C86.8301 44.1667 87.4691 44.2891 88.0278 44.5324C88.5865 44.7757 89.0609 45.0996 89.4468 45.5041C89.8341 45.9101 90.13 46.3799 90.3333 46.9152C90.538 47.4504 90.639 48.0079 90.639 48.5918C90.639 49.1756 90.5394 49.7359 90.3416 50.2697C90.1425 50.805 89.8493 51.2734 89.4634 51.6794C89.0761 52.0839 88.6004 52.4051 88.0361 52.6442C87.4718 52.8819 86.8301 53.0001 86.1095 53.0001Z" fill="#212121"></path>
<path d="M98.5666 46.5496C97.9429 46.5593 97.3786 46.6636 96.8738 46.8568C96.3676 47.0514 96.0025 47.3434 95.777 47.7312V52.8374H93.1963V44.328H95.5668V46.0463C95.8573 45.4735 96.2307 45.0245 96.6885 44.7006C97.1449 44.3781 97.6303 44.2099 98.1476 44.1987H98.4048C98.4588 44.1987 98.5113 44.2043 98.5666 44.2154V46.5496Z" fill="#212121"></path>
<path d="M104 51.1371C104.28 51.1371 104.551 51.0885 104.814 50.9912C105.078 50.8925 105.295 50.7646 105.466 50.6005C105.714 50.4073 105.837 50.2015 105.837 49.9847V49.1742C105.612 49.088 105.367 49.0199 105.103 48.9712C104.84 48.9239 104.594 48.8989 104.368 48.8989C103.895 48.8989 103.505 49.0073 103.2 49.2242C102.894 49.4411 102.74 49.7205 102.74 50.0667C102.74 50.3809 102.859 50.6367 103.096 50.8369C103.332 51.0357 103.634 51.1357 103.999 51.1357M103.242 53C102.823 53 102.433 52.9333 102.074 52.7984C101.714 52.6636 101.404 52.4745 101.146 52.2312C100.888 51.9879 100.684 51.703 100.533 51.3721C100.382 51.0426 100.308 50.6839 100.308 50.2933C100.308 49.8734 100.396 49.4884 100.573 49.1422C100.75 48.796 101.001 48.4999 101.323 48.2511C101.645 48.0022 102.027 47.8076 102.468 47.6672C102.909 47.5268 103.399 47.4559 103.935 47.4559C104.289 47.4559 104.634 47.4865 104.967 47.5463C105.3 47.606 105.591 47.695 105.838 47.8132V47.4239C105.838 46.441 105.274 45.9489 104.146 45.9489C103.684 45.9489 103.242 46.0268 102.823 46.1839C102.404 46.3396 101.963 46.5745 101.501 46.8887L100.743 45.2663C101.302 44.8993 101.883 44.6241 102.486 44.4405C103.088 44.257 103.728 44.1653 104.404 44.1653C105.683 44.1653 106.672 44.4683 107.371 45.0745C108.069 45.6792 108.419 46.5662 108.419 47.7325V49.9207C108.419 50.1807 108.459 50.3614 108.541 50.4643C108.621 50.5672 108.764 50.6283 108.967 50.6506V52.8387C108.741 52.893 108.537 52.9277 108.354 52.943C108.172 52.9597 108.004 52.968 107.855 52.968C107.371 52.968 107.006 52.8735 106.758 52.6844C106.511 52.4954 106.356 52.2271 106.291 51.8823L106.242 51.493C105.866 51.9796 105.417 52.3522 104.895 52.6121C104.374 52.8707 103.823 53 103.242 53Z" fill="#212121"></path>
<path d="M91.1893 17.5499C89.9598 17.5499 88.8713 18.1533 88.1992 19.0805C87.527 18.1533 86.4386 17.5499 85.2091 17.5499C83.1677 17.5499 81.5122 19.2126 81.5122 21.2673C81.5122 24.3883 88.1992 29.4264 88.1992 29.4264C88.1992 29.4264 94.8862 24.3897 94.8862 21.2673C94.8862 19.2126 93.2321 17.5499 91.1893 17.5499Z" fill="#212121"></path>
</g>
<path d="M22.7318 5.63037H17.4873V10.8589H22.7318V5.63037Z" fill="#212121"></path>
<mask id="mask2_545_2105" style="mask-type:luminance" maskUnits="userSpaceOnUse" x="0" y="0" width="109" height="53">
<path d="M108.999 0H0V53H108.999V0Z" fill="white"></path>
</mask>
<g mask="url(#mask2_545_2105)">
<path d="M74.4005 16.7642L88.1977 5.33262L101.995 16.7642V33.6524H74.3991V16.7642H74.4005ZM48.8766 20.2231C49.1767 19.5933 49.5626 19.0567 50.0328 18.6104C50.5016 18.1642 51.0424 17.818 51.6565 17.5678C52.2692 17.3189 52.9289 17.1952 53.6328 17.1952C55.067 17.1952 56.2869 17.6623 57.291 18.591C58.2951 19.5238 58.8635 20.7625 58.9949 22.3084H48.3482C48.4022 21.5465 48.5778 20.8528 48.8779 20.2244M107.217 33.6524H105.747V15.3198C105.747 15.2267 105.707 15.1447 105.693 15.0571C105.789 14.5135 105.693 14.0186 105.347 13.7322L89.6485 0.725499C89.495 0.579528 89.3429 0.443288 89.1797 0.339023L89.0206 0.205564C88.7993 0.0234479 88.5075 -0.0140875 88.1991 0.0025949C87.8921 -0.0140875 87.6002 0.0234479 87.379 0.205564L87.2199 0.339023C87.0539 0.443288 86.9032 0.579528 86.7511 0.725499L71.0522 13.7308C70.7051 14.0172 70.6096 14.5135 70.7051 15.0557C70.6926 15.1433 70.6525 15.2253 70.6525 15.3184V33.651H58.8026C59.0751 33.5189 59.3434 33.3785 59.6006 33.2214C61.2575 32.2121 62.4621 30.9207 63.22 29.3456L58.7196 28.086C58.3794 28.9257 57.7474 29.6014 56.8221 30.1129C55.8955 30.6245 54.9108 30.8803 53.8679 30.8803C53.1889 30.8803 52.5361 30.7608 51.9096 30.5258C51.2844 30.2895 50.7243 29.9475 50.2292 29.5026C49.7327 29.0578 49.3288 28.5184 49.0163 27.8914C48.7037 27.2616 48.5073 26.5401 48.4285 25.7283H64.2781C64.332 25.5183 64.3624 25.2556 64.3763 24.94C64.3873 24.6272 64.3956 24.2991 64.3956 23.9571C64.3956 22.5669 64.1536 21.231 63.6723 19.9436C63.1896 18.6619 62.4843 17.533 61.5604 16.5627C60.6324 15.5923 59.5107 14.8166 58.1941 14.241C56.8761 13.6641 55.3824 13.3763 53.713 13.3763C52.0437 13.3763 50.5362 13.6641 49.1933 14.241C47.849 14.8166 46.708 15.5993 45.7689 16.5835C44.8298 17.565 44.112 18.7064 43.6155 20.0048C43.1204 21.3032 42.8728 22.6865 42.8728 24.1545C42.8728 25.6226 43.1273 26.921 43.6362 28.2042C44.1452 29.4901 44.8699 30.619 45.8076 31.5879C46.6264 32.4332 47.6014 33.1144 48.7161 33.651H35.7723V20.1814H40.7803V16.1289H35.7723V13.3763C35.7723 10.9115 36.6851 9.677 38.5107 9.677C38.9533 9.677 39.4442 9.75207 39.9767 9.89387C40.5119 10.0398 40.9753 10.215 41.368 10.4249L42.4247 6.45312C40.7277 5.64125 39.0459 5.23253 37.3766 5.23253C35.2896 5.23253 33.6258 5.97907 32.3866 7.47631C31.1488 8.968 30.5292 11.0019 30.5292 13.5723V16.1275H27.8682V20.18H30.5292V33.6496H22.7344V13.7322H17.4913V33.6524H13.3007C13.3436 33.6329 13.3892 33.6163 13.4307 33.5954L12.7253 29.3873C12.3865 29.5179 12.0269 29.6361 11.6479 29.739C11.269 29.846 10.9371 29.8975 10.6494 29.8975C9.2138 29.8975 8.496 29.0981 8.496 27.4966V5.63013H3.25291V29.5833C3.25291 31.2084 3.70239 32.4624 4.60275 33.3382C4.71754 33.4494 4.83787 33.5551 4.96372 33.6524H1.78135C0.802162 33.6524 0 34.4587 0 35.4444C0 36.43 0.802162 37.2349 1.78135 37.2349H107.216C108.196 37.2349 108.999 36.4286 108.999 35.4444C108.999 34.4601 108.196 33.6524 107.216 33.6524" fill="#212121"></path>
</g>
</g>
<defs>
<clipPath id="clip0_545_2105">
<rect width="109" height="53" fill="white"></rect>
</clipPath>
</defs>
</svg>