<svg width="169" height="48" viewBox="0 0 169 48" fill="none" xmlns="http://www.w3.org/2000/svg">
<g clip-path="url(#clip0_545_2131)">
<path d="M60.8862 33.1776L60.8675 25.3924H48.3223V18.9714L60.1653 0.0752646L69.3074 0L69.1857 18.9808L73.1084 18.9243V25.3924H69.2466L69.3074 33.1729H60.8862V33.1776ZM55.8541 18.929L60.7317 18.9008V11.0357L55.8541 18.929Z" fill="#212121"></path>
<path d="M137.74 0.0611572H146.255V7.48883V25.7593V33.2387H142.575H138.096H137.74V25.7593V7.48883V0.0611572Z" fill="#212121"></path>
<path d="M26.8317 22.7251C27.6977 21.6056 28.3156 20.3496 28.676 18.9478C28.9382 18.007 29.0692 17.0473 29.0692 16.0783C29.0692 14.7094 28.8399 13.397 28.3811 12.1269C27.9224 10.8615 27.267 9.75138 26.4151 8.79175C25.5584 7.83684 24.5333 7.06537 23.3396 6.47737C22.1413 5.89407 20.8212 5.60242 19.3795 5.60242C17.9377 5.60242 16.6129 5.87996 15.4193 6.43033C14.2209 6.9854 13.1958 7.73335 12.3438 8.67415C11.4872 9.61496 10.8225 10.7063 10.3497 11.9576C9.87224 13.2088 9.63818 14.5354 9.63818 15.9278C9.63818 17.3202 9.87692 18.6514 10.3497 19.9215C10.8225 21.1869 11.4919 22.2923 12.3438 23.2331C13.1958 24.174 14.2303 24.9313 15.4427 25.5005C16.6551 26.0697 17.9985 26.3566 19.4778 26.3566C20.002 26.3566 20.545 26.3049 21.1021 26.2108L26.4666 32.9329C26.2793 33.0081 26.0827 33.0599 25.8955 33.1304H29.9212L28.8305 31.8133L23.6158 25.4346C24.8937 24.7526 25.9657 23.8494 26.841 22.7298L26.8317 22.7251Z" fill="#212121"></path>
<path d="M1.99893 8.91882C2.26107 8.24144 2.59811 7.55465 3.01004 6.87257C3.41729 6.19048 3.85731 5.55543 4.31605 4.97213C5.88889 2.93999 7.74726 1.35473 9.85842 0.169312H1.57764V10.1325C1.71339 9.72321 1.83978 9.31396 1.99893 8.91412V8.91882Z" fill="#212121"></path>
<path d="M12.1381 32.8859C9.87714 31.9781 7.88769 30.7268 6.18379 29.1368C4.47989 27.5469 3.11302 25.6605 2.09723 23.4873C1.90063 23.0639 1.73679 22.6264 1.57764 22.189V33.1353H12.8449C12.6109 33.0506 12.3721 32.9847 12.1381 32.8907V32.8859Z" fill="#212121"></path>
<path d="M28.7373 0.169312C30.1557 0.945478 31.457 1.87217 32.6132 2.97292C34.3218 4.59581 35.6653 6.51976 36.653 8.74477C37.636 10.9698 38.1275 13.3783 38.1275 15.9796C38.1275 17.9929 37.8326 19.8839 37.2428 21.6574C36.653 23.4261 35.8338 25.0396 34.7805 26.5025L40.1684 33.1305H45.3176V0.169312H28.7373Z" fill="#212121"></path>
<path d="M77.8133 16.7605H84.9425C85.7102 16.7605 86.4358 16.6805 87.1146 16.5206C87.7933 16.3559 88.3831 16.0878 88.884 15.7021C89.3849 15.321 89.7734 14.8318 90.0543 14.2438C90.3351 13.6511 90.4755 12.9314 90.4755 12.08C90.4755 11.2285 90.3257 10.5559 90.0355 9.98196C89.7406 9.40807 89.338 8.94237 88.8372 8.59427C88.3316 8.24147 87.7559 7.98275 87.0911 7.82281C86.4264 7.65817 85.7383 7.5782 85.0315 7.5782H73.7876V0.202271H84.2357C85.1204 0.202271 86.0145 0.216383 86.9133 0.244607C87.8167 0.277535 88.7061 0.362208 89.5955 0.512737C90.4802 0.658562 91.3369 0.893764 92.1607 1.21834C92.9893 1.54292 93.771 1.9851 94.5059 2.54488C95.8634 3.66444 96.8792 5.0192 97.5627 6.60917C98.2414 8.19913 98.5831 9.86907 98.5831 11.6002C98.5831 12.8655 98.3959 14.0839 98.0308 15.2458C97.661 16.4124 97.1226 17.452 96.4158 18.3834C95.709 19.3101 94.843 20.0909 93.8272 20.726C92.8067 21.3563 91.6505 21.7797 90.3492 21.982L99.29 33.2481H89.6423L77.818 16.7746L77.8133 16.7605Z" fill="#212121"></path>
<path d="M150.641 0.0611572H159.114V25.7593H169V33.2387H150.641V0.0611572Z" fill="#212121"></path>
<path d="M111.151 33.2387L112.607 29.245L118.267 13.7123L123.931 29.245L125.386 33.2387H134.309L131.795 26.3473L125.644 9.46453L122.367 0.790283H114.171L110.894 9.46453L104.738 26.3473L102.225 33.2387H111.151Z" fill="#212121"></path>
<path d="M4.92447 42.2563C4.85425 42.1811 4.75595 42.0964 4.62488 42.0117C4.49381 41.9224 4.33933 41.8424 4.16145 41.7671C3.98357 41.6919 3.78697 41.6307 3.57632 41.579C3.36099 41.5319 3.13162 41.5037 2.88821 41.5037C2.42947 41.5037 2.08307 41.5978 1.84902 41.7765C1.61496 41.9553 1.49794 42.2093 1.49794 42.5386C1.49794 42.722 1.53538 42.8679 1.61028 42.9808C1.68518 43.0937 1.8022 43.1971 1.952 43.2771C2.10179 43.3571 2.29372 43.4371 2.52309 43.5029C2.75246 43.5688 3.01928 43.6393 3.32355 43.7193C3.68399 43.8181 4.01166 43.9169 4.31593 44.0204C4.61552 44.1285 4.87297 44.2556 5.08362 44.4108C5.29427 44.566 5.45811 44.7636 5.57513 44.9941C5.69216 45.2246 5.75301 45.5068 5.75301 45.8502C5.75301 46.2407 5.6828 46.5699 5.533 46.8428C5.38789 47.1156 5.19129 47.332 4.94787 47.506C4.69978 47.6754 4.41423 47.8024 4.09124 47.8824C3.76357 47.9623 3.42185 48.0047 3.05205 48.0047C2.49032 48.0047 1.94732 47.92 1.42304 47.7507C0.898762 47.5813 0.421295 47.332 0 47.0027L0.538321 46.0008C0.627261 46.0901 0.75833 46.1936 0.922167 46.3065C1.086 46.4147 1.28261 46.5182 1.5073 46.6123C1.73199 46.7064 1.98008 46.7863 2.25159 46.8522C2.52309 46.918 2.80395 46.951 3.09418 46.951C3.53887 46.951 3.88059 46.871 4.12869 46.7064C4.3721 46.5417 4.49849 46.3065 4.49849 45.9913C4.49849 45.8032 4.45168 45.648 4.36274 45.5209C4.2738 45.3939 4.14273 45.2857 3.96953 45.1917C3.79633 45.0976 3.58569 45.0129 3.33759 44.9423C3.08949 44.8718 2.80395 44.7918 2.48564 44.7071C2.12052 44.6084 1.79752 44.5096 1.52602 44.4014C1.25452 44.2932 1.02515 44.1615 0.84727 44.0109C0.66939 43.8557 0.528959 43.677 0.435338 43.4747C0.341717 43.2724 0.294906 43.0231 0.294906 42.7267C0.294906 42.3645 0.365122 42.0447 0.496191 41.7624C0.631942 41.4802 0.819184 41.245 1.05792 41.0521C1.29665 40.8592 1.57751 40.7134 1.90519 40.6193C2.22818 40.5205 2.57926 40.4735 2.95374 40.4735C3.46866 40.4735 3.93208 40.5535 4.35338 40.7134C4.77467 40.8734 5.13979 41.0709 5.45811 41.3108L4.92915 42.2705L4.92447 42.2563Z" fill="#212121"></path>
<path d="M13.8794 47.9812C13.3598 47.9812 12.887 47.873 12.461 47.6613C12.0351 47.4496 11.6699 47.1674 11.361 46.8146C11.052 46.4618 10.818 46.0619 10.6495 45.6103C10.4856 45.1587 10.4014 44.693 10.4014 44.2226C10.4014 43.7522 10.4903 43.2536 10.6682 42.802C10.8461 42.3504 11.0895 41.9506 11.3984 41.6025C11.7121 41.2544 12.0819 40.9769 12.5078 40.7699C12.9385 40.5676 13.4066 40.4641 13.9122 40.4641C14.4177 40.4641 14.9045 40.5723 15.3305 40.7934C15.7565 41.0098 16.1216 41.3014 16.4259 41.6542C16.7301 42.007 16.9642 42.4116 17.1327 42.8585C17.2966 43.3101 17.3808 43.7663 17.3808 44.232C17.3808 44.726 17.2919 45.1964 17.114 45.6527C16.9361 46.1043 16.6927 46.5041 16.3838 46.8475C16.0701 47.1909 15.705 47.4684 15.279 47.6754C14.853 47.8824 14.3849 47.9812 13.8841 47.9812H13.8794ZM11.5857 44.2226C11.5857 44.5707 11.6372 44.9094 11.7448 45.234C11.8525 45.5633 12.007 45.8502 12.2083 46.0995C12.4095 46.3489 12.653 46.5511 12.9338 46.7017C13.2194 46.8522 13.5377 46.9275 13.8888 46.9275C14.2398 46.9275 14.5722 46.8475 14.8624 46.6923C15.148 46.537 15.3914 46.3253 15.588 46.0713C15.7846 45.8126 15.9344 45.5257 16.0374 45.2058C16.1403 44.8859 16.1918 44.5566 16.1918 44.2273C16.1918 43.8745 16.1357 43.5311 16.0233 43.2066C15.911 42.8867 15.7565 42.5997 15.5552 42.3504C15.3539 42.1011 15.1105 41.9035 14.8296 41.753C14.5441 41.6025 14.2305 41.5272 13.8841 41.5272C13.5377 41.5272 13.2006 41.6025 12.9104 41.7624C12.6249 41.9177 12.3815 42.1246 12.1848 42.374C11.9882 42.6233 11.8385 42.9102 11.7308 43.2348C11.6278 43.5594 11.5763 43.8887 11.5763 44.2226H11.5857Z" fill="#212121"></path>
<path d="M22.5112 47.9294V40.5159H23.6768V46.8945H27.637V47.9294H22.5159H22.5112Z" fill="#212121"></path>
<path d="M35.2715 46.9274C35.66 46.9274 35.983 46.8521 36.2358 46.6969C36.4932 46.5417 36.6992 46.3441 36.8537 46.0995C37.0082 45.8549 37.1205 45.5679 37.186 45.2528C37.2516 44.9376 37.2843 44.6083 37.2843 44.2743V40.5158H38.4593V44.2743C38.4593 44.7824 38.3984 45.2622 38.2814 45.7091C38.1644 46.156 37.9771 46.5511 37.7197 46.8898C37.4622 47.2285 37.1346 47.4919 36.7273 47.6848C36.3247 47.8823 35.8332 47.9764 35.2668 47.9764C34.7004 47.9764 34.1808 47.8729 33.7782 47.6707C33.371 47.4637 33.048 47.1908 32.7952 46.8427C32.5471 46.4993 32.3646 46.1042 32.2569 45.6573C32.1446 45.2151 32.0884 44.7494 32.0884 44.2696V40.5111H33.254V44.2696C33.254 44.613 33.2867 44.9423 33.3523 45.2575C33.4178 45.5727 33.5301 45.8549 33.6846 46.1042C33.8391 46.3488 34.0497 46.5464 34.3072 46.7016C34.5647 46.8521 34.8876 46.9274 35.2668 46.9274H35.2715Z" fill="#212121"></path>
<path d="M49.3243 41.5508H46.8715V47.9294H45.7059V41.5508H43.2437V40.5159H49.3197V41.5508H49.3243Z" fill="#212121"></path>
<path d="M54.2485 47.9295V40.53H55.4141V47.9295H54.2485Z" fill="#212121"></path>
<path d="M64.0273 47.9812C63.5077 47.9812 63.035 47.873 62.609 47.6613C62.183 47.4496 61.8179 47.1674 61.5089 46.8146C61.2 46.4618 60.9659 46.0619 60.7974 45.6103C60.6336 45.1587 60.5493 44.693 60.5493 44.2226C60.5493 43.7522 60.6383 43.2536 60.8161 42.802C60.994 42.3504 61.2374 41.9506 61.5464 41.6025C61.86 41.2544 62.2298 40.9769 62.6558 40.7699C63.0864 40.5676 63.5546 40.4641 64.0601 40.4641C64.5657 40.4641 65.0525 40.5723 65.4785 40.7934C65.9044 41.0098 66.2696 41.3014 66.5738 41.6542C66.8781 42.007 67.1121 42.4116 67.2807 42.8585C67.4445 43.3101 67.5288 43.7663 67.5288 44.232C67.5288 44.726 67.4398 45.1964 67.2619 45.6527C67.0841 46.1043 66.8406 46.5041 66.5317 46.8475C66.2181 47.1909 65.8529 47.4684 65.427 47.6754C65.001 47.8824 64.5329 47.9812 64.032 47.9812H64.0273ZM61.7289 44.2226C61.7289 44.5707 61.7804 44.9094 61.8881 45.234C61.9958 45.5633 62.1502 45.8502 62.3515 46.0995C62.5528 46.3489 62.7962 46.5511 63.0771 46.7017C63.3626 46.8522 63.6809 46.9275 64.032 46.9275C64.3831 46.9275 64.7154 46.8475 65.0057 46.6923C65.2912 46.537 65.5346 46.3253 65.7312 46.0713C65.9278 45.8126 66.0776 45.5257 66.1806 45.2058C66.2836 44.8859 66.3351 44.5566 66.3351 44.2273C66.3351 43.8745 66.2789 43.5311 66.1666 43.2066C66.0542 42.8867 65.8998 42.5997 65.6985 42.3504C65.4972 42.1011 65.2538 41.9035 64.9729 41.753C64.6874 41.6025 64.3737 41.5272 64.0273 41.5272C63.6809 41.5272 63.3439 41.6025 63.0537 41.7624C62.7681 41.9177 62.5247 42.1246 62.3281 42.374C62.1315 42.6233 61.9817 42.9102 61.874 43.2348C61.7711 43.5594 61.7196 43.8887 61.7196 44.2226H61.7289Z" fill="#212121"></path>
<path d="M73.8248 42.708V47.9294H72.6592V40.5159H73.572L77.7896 45.8597V40.5253H78.9646V47.9247H78.0003L73.8248 42.7032V42.708Z" fill="#212121"></path>
<path d="M88.9167 42.2563C88.8464 42.1811 88.7481 42.0964 88.6171 42.0117C88.486 41.9224 88.3315 41.8424 88.1536 41.7671C87.9758 41.6919 87.7792 41.6307 87.5685 41.579C87.3532 41.5319 87.1238 41.5037 86.8804 41.5037C86.4217 41.5037 86.0753 41.5978 85.8412 41.7765C85.6072 41.9553 85.4901 42.2093 85.4901 42.5386C85.4901 42.722 85.5276 42.8679 85.6025 42.9808C85.6774 43.0937 85.7944 43.1971 85.9442 43.2771C86.094 43.3571 86.2859 43.4371 86.5153 43.5029C86.7447 43.5688 87.0115 43.6393 87.3157 43.7193C87.6762 43.8181 88.0038 43.9169 88.3081 44.0204C88.6077 44.1285 88.8652 44.2556 89.0758 44.4108C89.2865 44.566 89.4503 44.7636 89.5673 44.9941C89.6843 45.2246 89.7452 45.5068 89.7452 45.8502C89.7452 46.2407 89.675 46.5699 89.5252 46.8428C89.3801 47.1156 89.1835 47.332 88.9401 47.506C88.692 47.6754 88.4064 47.8024 88.0834 47.8824C87.7558 47.9623 87.414 48.0047 87.0442 48.0047C86.4825 48.0047 85.9395 47.92 85.4152 47.7507C84.891 47.5813 84.4135 47.332 83.9922 47.0027L84.5305 46.0008C84.6195 46.0901 84.7505 46.1936 84.9144 46.3065C85.0782 46.4147 85.2748 46.5182 85.4995 46.6123C85.7242 46.7064 85.9723 46.7863 86.2438 46.8522C86.5153 46.918 86.7961 46.951 87.0864 46.951C87.5311 46.951 87.8728 46.871 88.1209 46.7064C88.3643 46.5417 88.4907 46.3065 88.4907 45.9913C88.4907 45.8032 88.4439 45.648 88.3549 45.5209C88.266 45.3939 88.1349 45.2857 87.9617 45.1917C87.7885 45.0976 87.5779 45.0129 87.3298 44.9423C87.0817 44.8718 86.7961 44.7918 86.4778 44.7071C86.1127 44.6084 85.7897 44.5096 85.5182 44.4014C85.2467 44.2932 85.0173 44.1615 84.8395 44.0109C84.6616 43.8604 84.5212 43.677 84.4275 43.4747C84.3339 43.2724 84.2871 43.0231 84.2871 42.7267C84.2871 42.3645 84.3573 42.0447 84.4884 41.7624C84.6241 41.4802 84.8114 41.245 85.0501 41.0521C85.2888 40.8592 85.5697 40.7134 85.8974 40.6193C86.2204 40.5205 86.5715 40.4735 86.9459 40.4735C87.4609 40.4735 87.9243 40.5535 88.3456 40.7134C88.7669 40.8734 89.132 41.0709 89.4503 41.3108L88.9213 42.2705L88.9167 42.2563Z" fill="#212121"></path>
<path d="M111.971 40.5159L114.017 43.4418L116.062 40.5159H117.34L114.639 44.2744L117.256 47.9294H115.978L114.017 45.1117L112.05 47.9294H110.763L113.394 44.2744L110.684 40.5159H111.971Z" fill="#212121"></path>
<path d="M122.082 47.9294V40.5159H125.176C125.508 40.5159 125.817 40.5864 126.093 40.7228C126.374 40.864 126.613 41.0427 126.814 41.2732C127.016 41.499 127.175 41.7577 127.287 42.0447C127.4 42.3363 127.46 42.628 127.46 42.929C127.46 43.2301 127.409 43.5406 127.301 43.8322C127.194 44.1192 127.044 44.3779 126.847 44.6037C126.651 44.8295 126.421 45.0082 126.145 45.1446C125.873 45.2811 125.569 45.3469 125.237 45.3469H123.243V47.9247H122.077L122.082 47.9294ZM123.243 44.3167H125.167C125.335 44.3167 125.485 44.2838 125.621 44.2132C125.756 44.1427 125.873 44.0439 125.967 43.9216C126.065 43.7993 126.14 43.6488 126.196 43.4841C126.253 43.3148 126.281 43.1313 126.281 42.9337C126.281 42.7362 126.248 42.5339 126.187 42.3693C126.126 42.1999 126.037 42.0588 125.93 41.9365C125.817 41.8142 125.691 41.7201 125.55 41.6542C125.41 41.5884 125.26 41.5555 125.11 41.5555H123.252V44.3214L123.243 44.3167Z" fill="#212121"></path>
<path d="M142.669 47.9294V40.5159H145.88C146.213 40.5159 146.517 40.5864 146.798 40.7228C147.078 40.864 147.317 41.0427 147.519 41.2732C147.72 41.499 147.879 41.7577 147.991 42.0447C148.108 42.3363 148.164 42.628 148.164 42.929C148.164 43.1784 148.132 43.4183 148.062 43.6488C147.991 43.8793 147.893 44.0909 147.771 44.2838C147.645 44.4814 147.495 44.6507 147.313 44.7918C147.135 44.933 146.933 45.0412 146.723 45.1117L148.478 47.9294H147.158L145.538 45.3516H143.835V47.9294H142.669ZM143.835 44.3167H145.871C146.039 44.3167 146.189 44.2791 146.325 44.2085C146.461 44.1333 146.578 44.0345 146.671 43.9028C146.77 43.7758 146.844 43.6252 146.901 43.4606C146.957 43.2913 146.985 43.1172 146.985 42.929C146.985 42.7409 146.952 42.5621 146.887 42.3975C146.821 42.2281 146.732 42.0823 146.629 41.96C146.521 41.833 146.395 41.7342 146.255 41.6637C146.114 41.5884 145.964 41.5555 145.815 41.5555H143.839V44.3214L143.835 44.3167Z" fill="#212121"></path>
<path d="M158.772 41.5508H156.319V47.9294H155.154V41.5508H152.691V40.5159H158.767V41.5508H158.772Z" fill="#212121"></path>
<path d="M167.998 42.2563C167.928 42.1811 167.83 42.0964 167.699 42.0117C167.568 41.9224 167.413 41.8424 167.235 41.7671C167.058 41.6919 166.861 41.6307 166.65 41.579C166.44 41.5272 166.206 41.5037 165.967 41.5037C165.508 41.5037 165.162 41.5978 164.928 41.7765C164.694 41.9553 164.577 42.2093 164.577 42.5386C164.577 42.722 164.614 42.8679 164.689 42.9808C164.764 43.0937 164.881 43.1971 165.031 43.2771C165.185 43.3618 165.372 43.4371 165.602 43.5029C165.831 43.5688 166.098 43.6393 166.402 43.7193C166.763 43.8181 167.09 43.9169 167.395 44.0204C167.694 44.1285 167.952 44.2556 168.162 44.4108C168.373 44.566 168.537 44.7636 168.654 44.9941C168.771 45.2246 168.832 45.5068 168.832 45.8502C168.832 46.2407 168.761 46.5699 168.612 46.8428C168.467 47.1156 168.27 47.332 168.026 47.506C167.778 47.6754 167.493 47.8024 167.17 47.8824C166.842 47.9623 166.5 48.0047 166.131 48.0047C165.569 48.0047 165.026 47.92 164.502 47.7507C163.977 47.5813 163.5 47.332 163.079 47.0027L163.617 46.0008C163.706 46.0901 163.837 46.1936 164.001 46.3065C164.165 46.4147 164.361 46.5182 164.586 46.6123C164.811 46.7064 165.059 46.7863 165.33 46.8522C165.602 46.918 165.883 46.951 166.173 46.951C166.617 46.951 166.959 46.871 167.207 46.7064C167.451 46.5417 167.577 46.3065 167.577 45.9913C167.577 45.8032 167.53 45.648 167.441 45.5209C167.352 45.3939 167.221 45.2857 167.048 45.1917C166.875 45.0976 166.664 45.0129 166.416 44.9423C166.168 44.8718 165.883 44.7918 165.564 44.7071C165.199 44.6084 164.876 44.5096 164.605 44.4014C164.333 44.2932 164.104 44.1615 163.926 44.0109C163.748 43.8557 163.608 43.677 163.514 43.4747C163.42 43.2724 163.374 43.0231 163.374 42.7267C163.374 42.3645 163.444 42.0447 163.575 41.7624C163.711 41.4802 163.898 41.245 164.137 41.0521C164.375 40.8592 164.656 40.7134 164.984 40.6193C165.307 40.5205 165.658 40.4735 166.032 40.4735C166.547 40.4735 167.011 40.5535 167.432 40.7134C167.853 40.8734 168.218 41.0709 168.537 41.3108L168.008 42.2705L167.998 42.2563Z" fill="#212121"></path>
<path d="M137.501 40.5159H132.446V41.5319H137.501V40.5159Z" fill="#212121"></path>
<path d="M137.534 43.6394H132.479V44.6555H137.534V43.6394Z" fill="#212121"></path>
<path d="M137.534 46.9039H132.479V47.92H137.534V46.9039Z" fill="#212121"></path>
<path d="M106.335 40.5159H101.279V41.5319H106.335V40.5159Z" fill="#212121"></path>
<path d="M106.368 43.6394H101.312V44.6555H106.368V43.6394Z" fill="#212121"></path>
<path d="M106.368 46.9039H101.312V47.92H106.368V46.9039Z" fill="#212121"></path>
</g>
<defs>
<clipPath id="clip0_545_2131">
<rect width="169" height="48" fill="white"></rect>
</clipPath>
</defs>
</svg>