<svg width="71" height="83" viewBox="0 0 71 83" fill="none" xmlns="http://www.w3.org/2000/svg">
<g clip-path="url(#clip0_37_134)">
<path d="M71 34.4058H36.7825V0H71V34.4058ZM71 36.985H36.7825V71.3908H71V36.985ZM34.2175 0H0V34.4058H34.2175V0ZM34.2175 36.985H0V71.3908H34.2175V36.985ZM16.1386 82.8058C16.1386 82.912 16.051 83 15.9454 83H14.0624C13.9447 83 13.8451 82.9302 13.7968 82.824C13.7787 82.7846 13.6188 82.4538 13.4166 82.023H10.3597C10.1575 82.4508 9.99758 82.7815 9.97947 82.824C9.93119 82.9302 9.8316 83 9.71391 83H7.83088C7.72526 83 7.63775 82.912 7.63775 82.8058C7.63775 82.7785 7.64379 82.7542 7.65284 82.7299C7.65284 82.7299 10.8606 75.8209 10.8727 75.7935C10.9059 75.7329 10.9693 75.6904 11.0447 75.6904H12.7346C12.8101 75.6904 12.8734 75.7329 12.9066 75.7935C12.9217 75.8209 16.1265 82.7299 16.1265 82.7299C16.1355 82.7542 16.1416 82.7785 16.1416 82.8058H16.1386ZM12.7075 80.4664C12.626 80.2722 12.5596 80.1022 12.5173 79.9778C12.451 79.7836 11.9379 78.2756 11.9319 78.2544C11.9259 78.2331 11.9078 78.224 11.8866 78.224C11.8655 78.224 11.8504 78.2331 11.8414 78.2544C11.8353 78.2756 11.3223 79.7836 11.2559 79.9778C11.2137 80.1022 11.1473 80.2722 11.0658 80.4664H12.7075ZM26.9449 83H28.6891C28.7947 83 28.8822 82.912 28.8822 82.8058V81.7529C28.8822 81.7529 28.8883 81.7286 28.8943 81.7195L29.7815 80.7516C29.7815 80.7516 29.8056 80.7334 29.8207 80.7334C29.8358 80.7334 29.8509 80.7425 29.86 80.7516L31.6223 82.8908C31.6766 82.9575 31.7581 83 31.8486 83H31.8396H34.0213C34.127 83 34.2145 82.912 34.2145 82.8058C34.2145 82.7603 34.1994 82.7178 34.1722 82.6844L31.3145 79.1373C31.3145 79.1373 31.3024 79.1191 31.3024 79.107C31.3024 79.0949 31.3084 79.0827 31.3145 79.0736L34.1088 76.0181C34.139 75.9847 34.1601 75.9362 34.1601 75.8876C34.1601 75.7814 34.0726 75.6934 33.967 75.6934H31.8396C31.7581 75.6934 31.6856 75.7268 31.6343 75.7784C31.6343 75.7784 30.0108 77.5474 29.5612 78.0329C29.1116 78.5183 28.9667 78.7065 28.9667 78.7065C28.9577 78.7156 28.9456 78.7247 28.9305 78.7247C28.9033 78.7247 28.8822 78.7034 28.8822 78.6761V75.8876C28.8822 75.7814 28.7947 75.6934 28.6891 75.6934H26.9449C26.8393 75.6934 26.7517 75.7814 26.7517 75.8876V82.8088C26.7517 82.915 26.8393 83.003 26.9449 83.003V83ZM23.209 83H24.7359C24.8416 83 24.9291 82.912 24.9291 82.8058V75.8846C24.9291 75.7784 24.8416 75.6904 24.7359 75.6904H22.9917C22.8861 75.6904 22.7986 75.7784 22.7986 75.8846V79.5894C22.7986 79.6168 22.7775 79.638 22.7503 79.638C22.7382 79.638 22.7262 79.6319 22.7171 79.6259C22.7171 79.6259 22.3127 79.104 22.023 78.8096C21.7333 78.5153 18.9933 75.7632 18.9933 75.7632C18.942 75.7177 18.8756 75.6904 18.8002 75.6904H17.2732C17.1676 75.6904 17.0801 75.7784 17.0801 75.8846V82.8058C17.0801 82.912 17.1676 83 17.2732 83H19.0174C19.123 83 19.2106 82.912 19.2106 82.8058V79.1009C19.2106 79.0736 19.2317 79.0524 19.2588 79.0524C19.2709 79.0524 19.283 79.0585 19.292 79.0645C19.292 79.0645 19.6964 79.5864 19.9861 79.8807C20.2758 80.1751 23.0159 82.9272 23.0159 82.9272C23.0672 82.9727 23.1335 83 23.209 83ZM6.9799 80.7121C6.9799 81.9774 5.78791 83.003 4.36357 83.003H0.193132C0.0844951 83.003 0 82.915 0 82.8088V75.8876C0 75.7814 0.0875127 75.6934 0.193132 75.6934H4.26398C5.58573 75.6934 6.68718 76.6098 6.68718 77.7416C6.68718 78.2331 6.47896 78.6852 6.13495 79.0372C6.65097 79.4559 6.9799 80.0507 6.9799 80.7152V80.7121ZM2.1335 78.3727C2.1335 78.4 2.15462 78.4213 2.18178 78.4213H3.97429C4.29416 78.4213 4.5567 78.1815 4.5567 77.8842C4.5567 77.5868 4.29718 77.3471 3.97429 77.3471H2.18178C2.15462 77.3471 2.1335 77.3684 2.1335 77.3957V78.3697V78.3727ZM4.8464 80.7121C4.8464 80.3632 4.54161 80.078 4.16742 80.078H2.17877C2.15161 80.078 2.13048 80.0992 2.13048 80.1265V81.2947C2.13048 81.322 2.15161 81.3433 2.17877 81.3433H4.16742C4.54161 81.3433 4.8464 81.0611 4.8464 80.7091V80.7121Z" fill="#212121"></path>
<path d="M61.1622 25.1573V21.9319C61.1622 21.6952 60.9721 21.501 60.7337 21.501H52.073C52.0126 21.501 51.9673 21.4525 51.9673 21.3948V19.4589C51.9673 19.3982 52.0156 19.3527 52.073 19.3527H59.4512C59.6866 19.3527 59.8797 19.1616 59.8797 18.9219V16.1273C59.8797 15.8906 59.6896 15.6964 59.4512 15.6964H52.073C52.0126 15.6964 51.9673 15.6479 51.9673 15.5902V13.6543C51.9673 13.5936 52.0156 13.5481 52.073 13.5481H60.7337C60.9691 13.5481 61.1622 13.357 61.1622 13.1173V9.89181C61.1622 9.65513 60.9721 9.46094 60.7337 9.46094H47.6883C47.4529 9.46094 47.2598 9.6521 47.2598 9.89181V25.1573C47.2598 25.394 47.4499 25.5882 47.6883 25.5882H60.7337C60.9691 25.5882 61.1622 25.397 61.1622 25.1573Z" fill="#F8F8FB"></path>
<path d="M19.1081 25.5882C19.1895 25.5882 19.262 25.5427 19.2982 25.4729L26.2388 10.0769C26.266 10.0192 26.2811 9.95551 26.2811 9.88876C26.2811 9.822 26.091 9.45789 25.8526 9.45789H21.5856C21.323 9.45789 21.0967 9.6187 20.9971 9.84628C20.9971 9.84628 18.4683 15.4779 18.1756 16.1242C17.7411 17.0891 17.2069 18.8278 17.2069 18.8278C17.1918 18.8672 17.1526 18.8976 17.1073 18.8976C17.0621 18.8976 17.0228 18.8672 17.0078 18.8278C17.0078 18.8278 16.4736 17.0891 16.0391 16.1242C15.7464 15.4779 13.2176 9.84628 13.2176 9.84628C13.118 9.6187 12.8916 9.45789 12.6291 9.45789H8.3621C8.12672 9.45789 7.93359 9.64905 7.93359 9.88876C7.93359 9.95551 7.94868 10.0192 7.97584 10.0769L14.9165 25.4729C14.9527 25.5396 15.0221 25.5882 15.1066 25.5882H19.1081Z" fill="#F8F8FB"></path>
<path d="M23.3083 58.489C23.5437 58.489 23.7368 58.6802 23.7368 58.9199V62.1454C23.7368 62.382 23.5467 62.5762 23.3083 62.5762H11.9739C11.7385 62.5762 11.5454 62.3851 11.5454 62.1454V46.8798C11.5454 46.6432 11.7355 46.449 11.9739 46.449H15.8245C16.0599 46.449 16.253 46.6401 16.253 46.8798V58.3828C16.253 58.4435 16.3013 58.489 16.3586 58.489H23.3083Z" fill="#F8F8FB"></path>
<path d="M53.8898 46.2305C48.9287 46.2305 44.9092 49.9839 44.9092 54.6172C44.9092 59.2506 48.9317 63.004 53.8898 63.004C58.8478 63.004 62.8704 59.2506 62.8704 54.6172C62.8704 49.9839 58.8478 46.2305 53.8898 46.2305ZM53.8898 58.9168C51.527 58.9168 49.6137 56.9901 49.6137 54.6172C49.6137 52.2444 51.53 50.3177 53.8898 50.3177C56.2496 50.3177 58.1659 52.2444 58.1659 54.6172C58.1659 56.9901 56.2496 58.9168 53.8898 58.9168Z" fill="#F8F8FB"></path>
</g>
<defs>
<clipPath id="clip0_37_134">
<rect width="71" height="83" fill="white"></rect>
</clipPath>
</defs>
</svg>