<svg width="95" height="51" viewBox="0 0 95 51" xmlns="http://www.w3.org/2000/svg">
<g clip-path="url(#clip0_24_2869)">
<path d="M79.9844 27.6048C83.4206 27.6048 86.8723 28.2233 89.6806 29.4661L90.9558 26.3113C87.6177 25.4333 84.0871 25.0197 80.2482 25.0197C71.1182 25.0197 63.5985 27.5502 62.1712 31.066C60.9077 34.1642 64.9488 35.9241 71.3455 38.4039C76.8409 40.5188 80.5429 41.8143 79.6415 44.0346C78.715 46.3056 73.9593 47.9094 68.1423 47.9094C64.1648 47.9094 60.4049 47.0841 57.144 45.3223L55.6724 48.9415C58.7658 50.1297 63.013 50.7521 67.5048 50.7521C77.2954 50.7521 85.603 47.9094 87.1998 43.9819C88.5673 40.6222 84.1699 38.7648 77.0701 36.0763C72.1314 34.2189 68.778 33.0268 69.6139 30.9548C70.3998 29.0486 74.8223 27.6028 79.9863 27.6028"></path>
<path d="M49.83 8.15273C45.5501 10.8452 41.7825 14.0156 38.6313 17.4397L39.188 18.3431C41.2509 16.6203 43.4776 14.9951 45.8525 13.5123C64.0798 2.14935 84.4008 3.09561 91.0961 15.6175C92.5985 18.427 93.2881 21.5877 93.2496 24.9259L94.1587 25.1347C95.5205 19.7303 95.2143 14.519 92.9163 10.176C86.5408 -1.86787 67.1848 -2.78096 49.8281 8.15078"></path>
<path d="M67.6896 25.4313L62.462 27.9657H52.8312L43.7763 50.1843H35.9658L45.0168 27.9657H36.6187L13.9054 50.1843H5.31091L0.977051 25.4313H14.0287L13.0233 27.9657H9.4329L10.7003 47.6538C12.0583 45.9485 14.1404 43.7751 16.4711 41.2972L31.2698 25.4313H67.6896Z"></path>
</g>
<defs>
</defs>
</svg>